#N canvas 187 25 1680 950 12;
#X obj 261 152 noise~;
#X obj 331 181 vline~;
#X obj 100 371 tgl 15 0 empty empty empty 17 7 0 10 -262144 -1 -1 0
1;
#X msg 93 425 bang;
#X obj 74 533 tabwrite~ array99;
#N canvas 0 50 450 300 (subpatch) 0;
#X array array99 1000 float 0;
#X coords 0 1 999 -1 200 100 1;
#X restore 348 660 graph;
#X msg 91 503 set array99;
#X msg 94 475 stop;
#X msg 93 451 start 500;
#X obj 318 225 *~;
#X obj 360 557 hsl 128 15 0 1 0 0 empty empty empty -2 -8 0 10 -262144
-1 -1 0 1;
#X obj 282 709 dac~;
#X msg 334 152 1 1 \, 0 1 1;
#X obj 224 320 vcf~ 100;
#X obj 246 253 sig~;
#X obj 540 -33 metro 500;
#X obj 618 -114 loadbang, f 9;
#X msg 623 -87 1;
#X obj 508 43 metro 100;
#X obj 508 -59 t i i;
#X obj 542 5 random 1000;
#X obj 508 72 random 100;
#X obj 510 103 > 25;
#X obj 512 124 select 1;
#X obj 361 276 random 10000;
#X obj 479 186 t b b;
#X obj 687 80 random 100;
#X obj 672 111 > 25;
#X obj 692 138 select 1;
#X obj 679 225 + 16;
#X obj 253 361 delwrite~ liquid 1000;
#X obj 261 497 vd~ liquid 100;
#X obj 337 428 sig~;
#X obj 388 440 *~ 0.66;
#X obj 96 400 metro 100;
#X obj 109 579 sig~;
#X obj 120 560 nbx 5 14 -1e+37 1e+37 0 0 empty empty empty 0 -8 0 10
-262144 -1 -1 0 256;
#X obj 424 347 delwrite~ liquid2 1000;
#X obj 409 471 vd~ liquid2 100;
#X obj 442 411 sig~;
#X obj 493 423 *~ 0.77;
#X obj 781 429 noise~;
#X obj 855 517 hsl 128 15 0 1 0 0 empty empty empty -2 -8 0 10 -262144
-1 -1 0 1;
#X obj 844 640 dac~;
#X obj 913 411 line~;
#X obj 929 224 metro 1000;
#X obj 808 453 *~ 0.2;
#X obj 827 477 vcf~ 1;
#X obj 934 341 pack 0 3000;
#X obj 936 265 random 300;
#X obj 272 601 *~ 1;
#X obj 669 51 metro 200;
#X obj 818 571 *~ 0.5;
#X obj 1286 331 vline~;
#X obj 1273 375 *~;
#X obj 1406 551 hsl 128 15 0 1 0 0 empty empty empty -2 -8 0 10 -262144
-1 -1 0 1;
#X obj 1336 657 dac~;
#X obj 1332 599 *~ 0;
#X msg 1289 303 1 1000 \, 0 1000 2000;
#X obj 1143 230 osc~ 12200;
#X obj 1247 149 random 100;
#X obj 1234 43 metro 100;
#X obj 684 177 random 240;
#X obj 758 260 random 200;
#X obj 653 393 + 50;
#X obj 801 212 metro 1000;
#X obj 709 309 + 2;
#X obj 1247 176 * 0.01;
#X obj 1248 200 * 20;
#X obj 1234 72 random 100;
#X obj 1246 123 select 1;
#X obj 1244 97 > 77;
#X obj 1242 247 phasor~;
#X obj 1198 293 *~;
#X obj 1434 492 *~ 0.44;
#X obj 1355 404 delwrite~ liquid3 300;
#X obj 1347 516 vd~ liquid3 40;
#X obj 1342 474 sig~;
#X obj 1413 439 nbx 5 14 -1e+37 1e+37 0 0 empty empty empty 0 -8 0
10 -262144 -1 -1 0 256;
#X obj 1129 176 +~;
#X msg 1159 72 osc~ 2;
#X obj 1023 -73 random 3000;
#X obj 1083 -33 + 10000;
#X obj 908 35 metro 1000;
#X obj 943 104 + 1;
#X obj 944 141 + 0;
#X msg 933 68 1;
#X obj 990 163 % 60;
#X obj 1049 245 t b b;
#X obj 1030 202 select 59 30;
#X obj 1136 -63 random 3000;
#X obj 1159 -25 + 100;
#X obj 1094 245 t b b;
#X obj 160 -59 loadbang;
#X msg 191 52 \; pd dsp \$1;
#X obj 191 25 tgl 15 0 empty empty empty 17 7 0 10 -262144 -1 -1 1
1;
#X text 218 23 Turn on/off audio;
#X msg 191 -6 1;
#X connect 0 0 9 0;
#X connect 1 0 9 1;
#X connect 2 0 34 0;
#X connect 3 0 4 0;
#X connect 6 0 4 0;
#X connect 7 0 4 0;
#X connect 8 0 4 0;
#X connect 9 0 13 0;
#X connect 10 0 50 1;
#X connect 12 0 1 0;
#X connect 13 0 30 0;
#X connect 13 0 37 0;
#X connect 13 0 50 0;
#X connect 14 0 13 1;
#X connect 15 0 20 0;
#X connect 16 0 17 0;
#X connect 17 0 19 0;
#X connect 17 0 45 0;
#X connect 17 0 51 0;
#X connect 17 0 61 0;
#X connect 17 0 65 0;
#X connect 17 0 83 0;
#X connect 18 0 21 0;
#X connect 19 0 18 0;
#X connect 19 1 15 0;
#X connect 20 0 18 1;
#X connect 21 0 22 0;
#X connect 22 0 23 0;
#X connect 23 0 25 0;
#X connect 24 0 14 0;
#X connect 25 0 12 0;
#X connect 25 1 24 0;
#X connect 26 0 27 0;
#X connect 27 0 28 0;
#X connect 28 0 62 0;
#X connect 29 0 13 2;
#X connect 31 0 33 0;
#X connect 31 0 50 0;
#X connect 32 0 31 0;
#X connect 33 0 30 0;
#X connect 34 0 3 0;
#X connect 36 0 35 0;
#X connect 38 0 40 0;
#X connect 38 0 50 0;
#X connect 39 0 38 0;
#X connect 40 0 37 0;
#X connect 41 0 46 0;
#X connect 42 0 52 1;
#X connect 44 0 47 1;
#X connect 45 0 49 0;
#X connect 46 0 47 0;
#X connect 47 0 52 0;
#X connect 48 0 44 0;
#X connect 49 0 48 0;
#X connect 50 0 11 0;
#X connect 50 0 11 1;
#X connect 50 0 4 0;
#X connect 51 0 26 0;
#X connect 52 0 43 0;
#X connect 52 0 43 1;
#X connect 52 0 4 0;
#X connect 53 0 54 1;
#X connect 54 0 57 0;
#X connect 54 0 75 0;
#X connect 55 0 57 1;
#X connect 57 0 56 0;
#X connect 57 0 56 1;
#X connect 58 0 53 0;
#X connect 59 0 73 0;
#X connect 60 0 67 0;
#X connect 61 0 69 0;
#X connect 62 0 29 0;
#X connect 63 0 66 0;
#X connect 64 0 32 0;
#X connect 65 0 63 0;
#X connect 66 0 64 0;
#X connect 66 0 39 0;
#X connect 67 0 68 0;
#X connect 68 0 72 0;
#X connect 69 0 71 0;
#X connect 70 0 60 0;
#X connect 71 0 70 0;
#X connect 72 0 73 1;
#X connect 73 0 54 0;
#X connect 74 0 75 0;
#X connect 76 0 57 0;
#X connect 76 0 74 0;
#X connect 77 0 76 0;
#X connect 78 0 77 0;
#X connect 79 0 59 0;
#X connect 80 0 79 1;
#X connect 81 0 82 0;
#X connect 82 0 79 0;
#X connect 83 0 86 0;
#X connect 84 0 85 0;
#X connect 85 0 84 1;
#X connect 85 0 87 0;
#X connect 86 0 84 0;
#X connect 87 0 89 0;
#X connect 88 0 58 0;
#X connect 88 1 81 0;
#X connect 89 0 88 0;
#X connect 89 1 92 0;
#X connect 90 0 91 0;
#X connect 91 0 79 0;
#X connect 92 0 58 0;
#X connect 92 1 90 0;
#X connect 93 0 97 0;
#X connect 95 0 94 0;
#X connect 97 0 95 0;
